<mxfile host="app.diagrams.net" agent="Mozilla/5.0 (Windows NT 10.0; Win64; x64) AppleWebKit/537.36 (KHTML, like Gecko) Chrome/131.0.0.0 Safari/537.36" version="26.0.9">
  <diagram name="Page-1" id="O9lBKP9u7Q54FbSGoPnZ">
    <mxGraphModel dx="794" dy="446" grid="1" gridSize="10" guides="1" tooltips="1" connect="1" arrows="1" fold="1" page="1" pageScale="1" pageWidth="850" pageHeight="1100" math="0" shadow="0">
      <root>
        <mxCell id="0" />
        <mxCell id="1" parent="0" />
        <mxCell id="o-xXIdqz5q8APjg4sxKs-31" value="User Uploads Excel File" style="whiteSpace=wrap;strokeWidth=2;sketch=1;curveFitting=1;jiggle=2;fillColor=#d5e8d4;strokeColor=#82b366;fillStyle=cross-hatch;fontStyle=1;fontFamily=Merienda;fontSource=https%3A%2F%2Ffonts.googleapis.com%2Fcss%3Ffamily%3DMerienda;fontColor=#009900;" vertex="1" parent="1">
          <mxGeometry x="293" y="130" width="227" height="54" as="geometry" />
        </mxCell>
        <mxCell id="o-xXIdqz5q8APjg4sxKs-32" value="Preprocess Excel Data" style="whiteSpace=wrap;strokeWidth=2;sketch=1;curveFitting=1;jiggle=2;fillColor=#dae8fc;strokeColor=#6c8ebf;fontStyle=1;fontFamily=Merienda;fontSource=https%3A%2F%2Ffonts.googleapis.com%2Fcss%3Ffamily%3DMerienda;" vertex="1" parent="1">
          <mxGeometry x="298" y="257" width="217" height="54" as="geometry" />
        </mxCell>
        <mxCell id="o-xXIdqz5q8APjg4sxKs-33" value="User Selects a Sheet" style="whiteSpace=wrap;strokeWidth=2;sketch=1;curveFitting=1;jiggle=2;fillColor=#dae8fc;strokeColor=#6c8ebf;fontFamily=Merienda;fontSource=https%3A%2F%2Ffonts.googleapis.com%2Fcss%3Ffamily%3DMerienda;fontStyle=1" vertex="1" parent="1">
          <mxGeometry x="304" y="383" width="206" height="54" as="geometry" />
        </mxCell>
        <mxCell id="o-xXIdqz5q8APjg4sxKs-34" value="Markdown Conversion" style="whiteSpace=wrap;strokeWidth=2;sketch=1;curveFitting=1;jiggle=2;fillColor=#dae8fc;strokeColor=#6c8ebf;fontStyle=1;fontFamily=Merienda;fontSource=https%3A%2F%2Ffonts.googleapis.com%2Fcss%3Ffamily%3DMerienda;" vertex="1" parent="1">
          <mxGeometry x="171" y="510" width="215" height="54" as="geometry" />
        </mxCell>
        <mxCell id="o-xXIdqz5q8APjg4sxKs-35" value="Preview DataFrame" style="whiteSpace=wrap;strokeWidth=2;sketch=1;curveFitting=1;jiggle=2;fillColor=#dae8fc;strokeColor=#6c8ebf;fontFamily=Merienda;fontSource=https%3A%2F%2Ffonts.googleapis.com%2Fcss%3Ffamily%3DMerienda;fontStyle=1" vertex="1" parent="1">
          <mxGeometry x="436" y="510" width="199" height="54" as="geometry" />
        </mxCell>
        <mxCell id="o-xXIdqz5q8APjg4sxKs-36" value="Select Language Model" style="whiteSpace=wrap;strokeWidth=2;sketch=1;curveFitting=1;jiggle=2;fillColor=#dae8fc;strokeColor=#6c8ebf;fontStyle=1;fontFamily=Merienda;fontSource=https%3A%2F%2Ffonts.googleapis.com%2Fcss%3Ffamily%3DMerienda;" vertex="1" parent="1">
          <mxGeometry x="295" y="637" width="223" height="54" as="geometry" />
        </mxCell>
        <mxCell id="o-xXIdqz5q8APjg4sxKs-37" value="Enter ChatGPT API Key" style="whiteSpace=wrap;strokeWidth=2;sketch=1;curveFitting=1;jiggle=2;fillColor=#dae8fc;strokeColor=#6c8ebf;fontFamily=Merienda;fontSource=https%3A%2F%2Ffonts.googleapis.com%2Fcss%3Ffamily%3DMerienda;fontStyle=1" vertex="1" parent="1">
          <mxGeometry x="20" y="763" width="222" height="54" as="geometry" />
        </mxCell>
        <mxCell id="o-xXIdqz5q8APjg4sxKs-38" value="Enter DeepSeek API Key" style="whiteSpace=wrap;strokeWidth=2;sketch=1;curveFitting=1;jiggle=2;fillColor=#dae8fc;strokeColor=#6c8ebf;fontStyle=1;fontFamily=Merienda;fontSource=https%3A%2F%2Ffonts.googleapis.com%2Fcss%3Ffamily%3DMerienda;" vertex="1" parent="1">
          <mxGeometry x="292" y="763" width="230" height="54" as="geometry" />
        </mxCell>
        <mxCell id="o-xXIdqz5q8APjg4sxKs-39" value="Enter Question" style="whiteSpace=wrap;strokeWidth=2;sketch=1;curveFitting=1;jiggle=2;fillColor=#dae8fc;strokeColor=#6c8ebf;fontFamily=Merienda;fontSource=https%3A%2F%2Ffonts.googleapis.com%2Fcss%3Ffamily%3DMerienda;fontStyle=1" vertex="1" parent="1">
          <mxGeometry x="605" y="763" width="166" height="54" as="geometry" />
        </mxCell>
        <mxCell id="o-xXIdqz5q8APjg4sxKs-40" value="Query ChatGPT API" style="whiteSpace=wrap;strokeWidth=2;sketch=1;curveFitting=1;jiggle=2;fillColor=#dae8fc;strokeColor=#6c8ebf;fontStyle=1;fontFamily=Merienda;fontSource=https%3A%2F%2Ffonts.googleapis.com%2Fcss%3Ffamily%3DMerienda;" vertex="1" parent="1">
          <mxGeometry x="33" y="902" width="196" height="54" as="geometry" />
        </mxCell>
        <mxCell id="o-xXIdqz5q8APjg4sxKs-41" value="Query DeepSeek API" style="whiteSpace=wrap;strokeWidth=2;sketch=1;curveFitting=1;jiggle=2;fillColor=#dae8fc;strokeColor=#6c8ebf;fontStyle=1;fontFamily=Merienda;fontSource=https%3A%2F%2Ffonts.googleapis.com%2Fcss%3Ffamily%3DMerienda;" vertex="1" parent="1">
          <mxGeometry x="305" y="902" width="203" height="54" as="geometry" />
        </mxCell>
        <mxCell id="o-xXIdqz5q8APjg4sxKs-42" value="Query Hugging Face Pipeline" style="whiteSpace=wrap;strokeWidth=2;sketch=1;curveFitting=1;jiggle=2;fillColor=#dae8fc;strokeColor=#6c8ebf;fontFamily=Merienda;fontSource=https%3A%2F%2Ffonts.googleapis.com%2Fcss%3Ffamily%3DMerienda;fontStyle=1" vertex="1" parent="1">
          <mxGeometry x="559" y="890" width="260" height="78" as="geometry" />
        </mxCell>
        <mxCell id="o-xXIdqz5q8APjg4sxKs-43" value="Log to Arctic DB" style="whiteSpace=wrap;strokeWidth=2;sketch=1;curveFitting=1;jiggle=2;fillColor=#dae8fc;strokeColor=#6c8ebf;fontFamily=Merienda;fontSource=https%3A%2F%2Ffonts.googleapis.com%2Fcss%3Ffamily%3DMerienda;fontStyle=1" vertex="1" parent="1">
          <mxGeometry x="320" y="1041" width="175" height="54" as="geometry" />
        </mxCell>
        <mxCell id="o-xXIdqz5q8APjg4sxKs-44" value="Show Response to User" style="whiteSpace=wrap;strokeWidth=2;sketch=1;curveFitting=1;jiggle=2;fillColor=#f8cecc;strokeColor=#b85450;fontStyle=1;fontFamily=Merienda;fontSource=https%3A%2F%2Ffonts.googleapis.com%2Fcss%3Ffamily%3DMerienda;fillStyle=cross-hatch;fontColor=#990000;" vertex="1" parent="1">
          <mxGeometry x="295" y="1167" width="223" height="54" as="geometry" />
        </mxCell>
        <mxCell id="o-xXIdqz5q8APjg4sxKs-45" value="Select Excel File" style="curved=1;startArrow=none;endArrow=block;exitX=0.5;exitY=1;entryX=0.5;entryY=-0.01;rounded=0;sketch=1;curveFitting=1;jiggle=2;fillColor=#dae8fc;strokeColor=#6c8ebf;" edge="1" parent="1" source="o-xXIdqz5q8APjg4sxKs-31" target="o-xXIdqz5q8APjg4sxKs-32">
          <mxGeometry relative="1" as="geometry">
            <Array as="points" />
          </mxGeometry>
        </mxCell>
        <mxCell id="o-xXIdqz5q8APjg4sxKs-46" value="Sheet Names &amp; Data" style="curved=1;startArrow=none;endArrow=block;exitX=0.5;exitY=0.99;entryX=0.5;entryY=0.01;rounded=0;sketch=1;curveFitting=1;jiggle=2;fillColor=#dae8fc;strokeColor=#6c8ebf;" edge="1" parent="1" source="o-xXIdqz5q8APjg4sxKs-32" target="o-xXIdqz5q8APjg4sxKs-33">
          <mxGeometry relative="1" as="geometry">
            <Array as="points" />
          </mxGeometry>
        </mxCell>
        <mxCell id="o-xXIdqz5q8APjg4sxKs-47" value="Display Data" style="curved=1;startArrow=none;endArrow=block;exitX=0.23;exitY=1.01;entryX=0.5;entryY=0;rounded=0;sketch=1;curveFitting=1;jiggle=2;fillColor=#dae8fc;strokeColor=#6c8ebf;" edge="1" parent="1" source="o-xXIdqz5q8APjg4sxKs-33" target="o-xXIdqz5q8APjg4sxKs-34">
          <mxGeometry relative="1" as="geometry">
            <Array as="points">
              <mxPoint x="278" y="474" />
            </Array>
          </mxGeometry>
        </mxCell>
        <mxCell id="o-xXIdqz5q8APjg4sxKs-48" value="Display Data" style="curved=1;startArrow=none;endArrow=block;exitX=0.77;exitY=1.01;entryX=0.5;entryY=0;rounded=0;sketch=1;curveFitting=1;jiggle=2;fillColor=#dae8fc;strokeColor=#6c8ebf;" edge="1" parent="1" source="o-xXIdqz5q8APjg4sxKs-33" target="o-xXIdqz5q8APjg4sxKs-35">
          <mxGeometry relative="1" as="geometry">
            <Array as="points">
              <mxPoint x="535" y="474" />
            </Array>
          </mxGeometry>
        </mxCell>
        <mxCell id="o-xXIdqz5q8APjg4sxKs-49" value="Show Markdown Table" style="curved=1;startArrow=none;endArrow=block;exitX=0.5;exitY=1;entryX=0.26;entryY=-0.01;rounded=0;sketch=1;curveFitting=1;jiggle=2;fillColor=#dae8fc;strokeColor=#6c8ebf;" edge="1" parent="1" source="o-xXIdqz5q8APjg4sxKs-34" target="o-xXIdqz5q8APjg4sxKs-36">
          <mxGeometry relative="1" as="geometry">
            <Array as="points">
              <mxPoint x="278" y="600" />
            </Array>
          </mxGeometry>
        </mxCell>
        <mxCell id="o-xXIdqz5q8APjg4sxKs-50" value="Show Table Preview" style="curved=1;startArrow=none;endArrow=block;exitX=0.5;exitY=1;entryX=0.75;entryY=-0.01;rounded=0;sketch=1;curveFitting=1;jiggle=2;fillColor=#dae8fc;strokeColor=#6c8ebf;" edge="1" parent="1" source="o-xXIdqz5q8APjg4sxKs-35" target="o-xXIdqz5q8APjg4sxKs-36">
          <mxGeometry relative="1" as="geometry">
            <Array as="points">
              <mxPoint x="535" y="600" />
            </Array>
          </mxGeometry>
        </mxCell>
        <mxCell id="o-xXIdqz5q8APjg4sxKs-51" value="ChatGPT" style="curved=1;startArrow=none;endArrow=block;exitX=0;exitY=0.97;entryX=0.5;entryY=0.01;rounded=0;sketch=1;curveFitting=1;jiggle=2;fillColor=#dae8fc;strokeColor=#6c8ebf;" edge="1" parent="1" source="o-xXIdqz5q8APjg4sxKs-36" target="o-xXIdqz5q8APjg4sxKs-37">
          <mxGeometry relative="1" as="geometry">
            <Array as="points">
              <mxPoint x="131" y="727" />
            </Array>
          </mxGeometry>
        </mxCell>
        <mxCell id="o-xXIdqz5q8APjg4sxKs-52" value="DeepSeek" style="curved=1;startArrow=none;endArrow=block;exitX=0.5;exitY=0.99;entryX=0.5;entryY=0.01;rounded=0;sketch=1;curveFitting=1;jiggle=2;fillColor=#dae8fc;strokeColor=#6c8ebf;" edge="1" parent="1" source="o-xXIdqz5q8APjg4sxKs-36" target="o-xXIdqz5q8APjg4sxKs-38">
          <mxGeometry relative="1" as="geometry">
            <Array as="points" />
          </mxGeometry>
        </mxCell>
        <mxCell id="o-xXIdqz5q8APjg4sxKs-53" value="Hugging Face" style="curved=1;startArrow=none;endArrow=block;exitX=1;exitY=0.96;entryX=0.5;entryY=0.01;rounded=0;sketch=1;curveFitting=1;jiggle=2;fillColor=#dae8fc;strokeColor=#6c8ebf;" edge="1" parent="1" source="o-xXIdqz5q8APjg4sxKs-36" target="o-xXIdqz5q8APjg4sxKs-39">
          <mxGeometry relative="1" as="geometry">
            <Array as="points">
              <mxPoint x="689" y="727" />
            </Array>
          </mxGeometry>
        </mxCell>
        <mxCell id="o-xXIdqz5q8APjg4sxKs-54" value="Ask Question" style="curved=1;startArrow=none;endArrow=block;exitX=0.5;exitY=1.01;entryX=0.5;entryY=0;rounded=0;sketch=1;curveFitting=1;jiggle=2;fillColor=#dae8fc;strokeColor=#6c8ebf;" edge="1" parent="1" source="o-xXIdqz5q8APjg4sxKs-37" target="o-xXIdqz5q8APjg4sxKs-40">
          <mxGeometry relative="1" as="geometry">
            <Array as="points" />
          </mxGeometry>
        </mxCell>
        <mxCell id="o-xXIdqz5q8APjg4sxKs-55" value="Ask Question" style="curved=1;startArrow=none;endArrow=block;exitX=0.5;exitY=1.01;entryX=0.5;entryY=0;rounded=0;sketch=1;curveFitting=1;jiggle=2;fillColor=#dae8fc;strokeColor=#6c8ebf;" edge="1" parent="1" source="o-xXIdqz5q8APjg4sxKs-38" target="o-xXIdqz5q8APjg4sxKs-41">
          <mxGeometry relative="1" as="geometry">
            <Array as="points" />
          </mxGeometry>
        </mxCell>
        <mxCell id="o-xXIdqz5q8APjg4sxKs-56" value="Ask Question" style="curved=1;startArrow=none;endArrow=block;exitX=0.5;exitY=1.01;entryX=0.5;entryY=0;rounded=0;sketch=1;curveFitting=1;jiggle=2;fillColor=#dae8fc;strokeColor=#6c8ebf;" edge="1" parent="1" source="o-xXIdqz5q8APjg4sxKs-39" target="o-xXIdqz5q8APjg4sxKs-42">
          <mxGeometry relative="1" as="geometry">
            <Array as="points" />
          </mxGeometry>
        </mxCell>
        <mxCell id="o-xXIdqz5q8APjg4sxKs-57" value="Log Data" style="curved=1;startArrow=none;endArrow=block;exitX=0.5;exitY=1;entryX=0;entryY=0.12;rounded=0;sketch=1;curveFitting=1;jiggle=2;fillColor=#dae8fc;strokeColor=#6c8ebf;" edge="1" parent="1" source="o-xXIdqz5q8APjg4sxKs-40" target="o-xXIdqz5q8APjg4sxKs-43">
          <mxGeometry relative="1" as="geometry">
            <Array as="points">
              <mxPoint x="131" y="1004" />
            </Array>
          </mxGeometry>
        </mxCell>
        <mxCell id="o-xXIdqz5q8APjg4sxKs-58" value="Log Data" style="curved=1;startArrow=none;endArrow=block;exitX=0.5;exitY=1;entryX=0.5;entryY=-0.01;rounded=0;sketch=1;curveFitting=1;jiggle=2;fillColor=#dae8fc;strokeColor=#6c8ebf;" edge="1" parent="1" source="o-xXIdqz5q8APjg4sxKs-41" target="o-xXIdqz5q8APjg4sxKs-43">
          <mxGeometry relative="1" as="geometry">
            <Array as="points" />
          </mxGeometry>
        </mxCell>
        <mxCell id="o-xXIdqz5q8APjg4sxKs-59" value="Log Data" style="curved=1;startArrow=none;endArrow=block;exitX=0.5;exitY=1;entryX=1;entryY=0.13;rounded=0;sketch=1;curveFitting=1;jiggle=2;fillColor=#dae8fc;strokeColor=#6c8ebf;" edge="1" parent="1" source="o-xXIdqz5q8APjg4sxKs-42" target="o-xXIdqz5q8APjg4sxKs-43">
          <mxGeometry relative="1" as="geometry">
            <Array as="points">
              <mxPoint x="689" y="1004" />
            </Array>
          </mxGeometry>
        </mxCell>
        <mxCell id="o-xXIdqz5q8APjg4sxKs-60" value="Display Response" style="curved=1;startArrow=none;endArrow=block;exitX=0.5;exitY=0.99;entryX=0.5;entryY=0.01;rounded=0;sketch=1;curveFitting=1;jiggle=2;fillColor=#dae8fc;strokeColor=#6c8ebf;" edge="1" parent="1" source="o-xXIdqz5q8APjg4sxKs-43" target="o-xXIdqz5q8APjg4sxKs-44">
          <mxGeometry relative="1" as="geometry">
            <Array as="points" />
          </mxGeometry>
        </mxCell>
      </root>
    </mxGraphModel>
  </diagram>
</mxfile>
